# xmcd
#
# Track frame offsets:
#	150
#	16769
#	30890
#	46467
#	59895
#	79444
#	93430
#	113818
#	132979
#	150543
#	158853
#	169959
#
# Disc length: 2422 seconds
#
# Revision: 0
# Processed by: cddbd v1.4PL0 Copyright (c) Steve Scherf et al.
# Submitted via: EasyCDDAExtractor 4.6.0.1
#
DISCID=9709740c
DTITLE=Erich Andrew Goebel - Got The Blues
DYEAR=2002
DGENRE=Blues
TTITLE0=Driftin' Blues
TTITLE1=Shake Your Money Maker
TTITLE2=Worryin' You Off My Mind
TTITLE3=Can't Do Nothing For Me
TTITLE4=Hear My Train A Comin
TTITLE5=Jeepster
TTITLE6=Automobile Blues
TTITLE7=Jack O' Diamonds
TTITLE8=Love In Vain
TTITLE9=Strollin' With E.G.
TTITLE10=Crawlin King Snake
TTITLE11=Baby Please Don't Go
EXTD=For bookings contact:\nPhone: 619.223.4336\nE-mail: goebelerich@yahoo.com
EXTT0=
EXTT1=
EXTT2=
EXTT3=
EXTT4=
EXTT5=
EXTT6=
EXTT7=
EXTT8=
EXTT9=
EXTT10=
EXTT11=
PLAYORDER=
